<svg xmlns="http://www.w3.org/2000/svg" version="1.1" xmlns:xlink="http://www.w3.org/1999/xlink" xmlns:svgjs="http://svgjs.dev/svgjs" width="128" height="128" viewBox="0 0 128 128"><g transform="matrix(0.4204081632653061,0,0,0.4204081632653061,36.620637877149484,12.221578124999994)"><svg viewBox="0 0 50 96" data-background-color="#ffffff" preserveAspectRatio="xMidYMid meet" height="245" width="128" xmlns="http://www.w3.org/2000/svg" xmlns:xlink="http://www.w3.org/1999/xlink"><g id="tight-bounds" transform="matrix(1,0,0,1,0.43971374430512356,0.25950000000000273)"><svg viewBox="0 0 49.120572511389746 95.481" height="95.481" width="49.120572511389746"><g><svg viewBox="0 0 49.120572511389746 95.481" height="95.481" width="49.120572511389746"><g><svg viewBox="0 0 49.120572511389746 95.481" height="95.481" width="49.120572511389746"><g id="textblocktransform"><svg viewBox="0 0 49.120572511389746 95.481" height="95.481" width="49.120572511389746" id="textblock"><g><svg viewBox="0 0 49.120572511389746 95.481" height="95.481" width="49.120572511389746"><g><svg viewBox="0 0 49.120572511389746 95.481" height="95.481" width="49.120572511389746"><g><svg xmlns="http://www.w3.org/2000/svg" xmlns:xlink="http://www.w3.org/1999/xlink" version="1.1" x="0" y="0" viewBox="24.48 0.394 51.03999999999999 99.21199999999999" enable-background="new 0 0 100 100" xml:space="preserve" height="95.481" width="49.120572511389746" class="icon-icon-0" data-fill-palette-color="accent" id="icon-0"><g fill="#003459" data-fill-palette-color="accent"><polygon points="71.354,23.553 71.354,29.444 68.758,30.943 68.758,25.053  " fill="#003459" data-fill-palette-color="accent"></polygon><polygon points="64.06,27.762 64.06,33.652 61.463,35.152 61.463,29.263  " fill="#003459" data-fill-palette-color="accent"></polygon><polygon points="56.764,31.972 56.764,37.861 54.165,39.361 54.165,33.472  " fill="#003459" data-fill-palette-color="accent"></polygon><polygon points="71.354,35.667 71.354,41.556 68.758,43.056 68.758,37.167  " fill="#003459" data-fill-palette-color="accent"></polygon><polygon points="64.06,39.875 64.06,45.766 61.463,47.266 61.463,41.375  " fill="#003459" data-fill-palette-color="accent"></polygon><polygon points="71.354,47.782 71.354,53.673 68.758,55.172 68.758,49.28  " fill="#003459" data-fill-palette-color="accent"></polygon><polygon points="64.06,51.989 64.06,57.88 61.463,59.38 61.463,53.491  " fill="#003459" data-fill-palette-color="accent"></polygon><polygon points="56.764,56.199 56.764,62.089 54.165,63.589 54.165,57.699  " fill="#003459" data-fill-palette-color="accent"></polygon><polygon points="64.06,64.104 64.06,69.994 61.463,71.493 61.463,65.604  " fill="#003459" data-fill-palette-color="accent"></polygon><polygon points="56.764,68.312 56.764,74.202 54.165,75.702 54.165,69.813  " fill="#003459" data-fill-palette-color="accent"></polygon><polygon points="71.354,72.008 71.354,77.899 68.758,79.399 68.758,73.508  " fill="#003459" data-fill-palette-color="accent"></polygon><polygon points="56.764,80.427 56.764,86.316 54.165,87.815 54.165,81.927  " fill="#003459" data-fill-palette-color="accent"></polygon><path d="M50 0.394L28.042 13.07 24.48 15.129V84.874L50 99.606V29.862L75.52 15.129zM31.242 79.397L28.644 77.897V72.007L31.242 73.505zM31.242 67.284L28.644 65.784V59.893L31.242 61.393zM31.242 43.056L28.644 41.556V35.665L31.242 37.164zM31.242 30.942L28.644 29.443V23.552L31.242 25.052zM38.538 83.607L35.939 82.108V76.216L38.538 77.716zM38.538 59.38L35.939 57.88V51.989L38.538 53.489zM38.538 47.266L35.939 45.765V39.875L38.538 41.375zM38.538 35.152L35.939 33.652V27.761L38.538 29.261zM45.833 87.815L43.235 86.316V80.424L45.833 81.924zM45.833 75.702L43.235 74.202V68.312L45.833 69.81zM45.833 63.589L43.235 62.089V56.198L45.833 57.697zM45.833 51.474L43.235 49.975V44.083L45.833 45.583zM50.031 6.719L50 6.703 32.982 16.528 30.56 15.129 33.274 13.562 50 3.904 69.438 15.128 67.015 16.527z" fill="#003459" data-fill-palette-color="accent"></path></g></svg></g></svg></g></svg></g></svg></g></svg></g></svg></g><defs></defs></svg><rect width="49.120572511389746" height="95.481" fill="none" stroke="none" visibility="hidden"></rect></g></svg></g></svg>